<mxfile host="app.diagrams.net" modified="2024-03-11T11:38:53.125Z" agent="Mozilla/5.0 (Macintosh; Intel Mac OS X 10_15_7) AppleWebKit/537.36 (KHTML, like Gecko) Chrome/122.0.0.0 Safari/537.36" version="24.0.4" etag="_wIw0TEbB2JWM1E_tQTA" type="github">
  <diagram name="Page-1" id="1b54wrjjVfb2BpKn88To">
    <mxGraphModel>
      <root>
        <mxCell id="0" />
        <mxCell id="1" parent="0" />
      </root>
    </mxGraphModel>
  </diagram>
</mxfile>
